<svg>

    <g id="heart" viewBox="0 0 13 13" xmlns="http://www.w3.org/2000/svg">
        <path d="M12.5205 3.15431C12.3242 2.69967 12.041 2.28769 11.687 1.94142C11.3327 1.59411 10.915 1.31811 10.4565 1.12843C9.98117 0.930957 9.4713 0.82988 8.95654 0.831065C8.23438 0.831065 7.52979 1.02882 6.91748 1.40235C6.771 1.49171 6.63184 1.58985 6.5 1.69679C6.36816 1.58985 6.229 1.49171 6.08252 1.40235C5.47022 1.02882 4.76562 0.831065 4.04346 0.831065C3.52344 0.831065 3.01953 0.930674 2.54346 1.12843C2.0835 1.31886 1.66895 1.59278 1.31299 1.94142C0.958491 2.2873 0.675309 2.69938 0.479492 3.15431C0.275879 3.62745 0.171875 4.12989 0.171875 4.64698C0.171875 5.13478 0.271484 5.64308 0.469238 6.16017C0.634766 6.5923 0.87207 7.04054 1.17529 7.49317C1.65576 8.20948 2.31641 8.95655 3.13672 9.71388C4.49609 10.9692 5.84229 11.8364 5.89941 11.8716L6.24658 12.0942C6.40039 12.1924 6.59815 12.1924 6.75195 12.0942L7.09912 11.8716C7.15625 11.835 8.50098 10.9692 9.86182 9.71388C10.6821 8.95655 11.3428 8.20948 11.8232 7.49317C12.1265 7.04054 12.3652 6.5923 12.5293 6.16017C12.7271 5.64308 12.8267 5.13478 12.8267 4.64698C12.8281 4.12989 12.7241 3.62745 12.5205 3.15431ZM6.5 10.9356C6.5 10.9356 1.28516 7.59425 1.28516 4.64698C1.28516 3.15431 2.52002 1.94435 4.04346 1.94435C5.11426 1.94435 6.04297 2.542 6.5 3.41505C6.95703 2.542 7.88574 1.94435 8.95654 1.94435C10.48 1.94435 11.7148 3.15431 11.7148 4.64698C11.7148 7.59425 6.5 10.9356 6.5 10.9356Z"/>
    </g>

    <g id="bag" viewBox="0 0 13 13" xmlns="http://www.w3.org/2000/svg">
        <path d="M11.0375 5.06L11.9031 10.685C11.9305 10.863 11.919 11.0449 11.8696 11.2181C11.8202 11.3913 11.7339 11.5518 11.6166 11.6885C11.4994 11.8253 11.354 11.9351 11.1904 12.0104C11.0268 12.0858 10.8488 12.1248 10.6687 12.125H2.3312C2.15097 12.125 1.97287 12.0861 1.80911 12.0108C1.64534 11.9356 1.49979 11.8258 1.38242 11.689C1.26505 11.5522 1.17866 11.3917 1.12914 11.2184C1.07963 11.0451 1.06818 10.8631 1.09558 10.685L1.9612 5.06C2.00661 4.76474 2.15625 4.49551 2.38303 4.30106C2.60981 4.10662 2.89873 3.99982 3.19745 4H9.80245C10.1011 3.99996 10.3898 4.10683 10.6165 4.30127C10.8431 4.4957 10.9927 4.76485 11.0381 5.06H11.0375Z" stroke-width="1.5" stroke-linecap="round" stroke-linejoin="round"/>
        <path d="M7.75 2.125C7.75 1.79348 7.6183 1.47554 7.38388 1.24112C7.14946 1.0067 6.83152 0.875 6.5 0.875C6.16848 0.875 5.85054 1.0067 5.61612 1.24112C5.3817 1.47554 5.25 1.79348 5.25 2.125" stroke-width="1.5" stroke-linecap="round" stroke-linejoin="round"/>
    </g>

    <g id="twitter" viewBox="0 0 20 20" xmlns="http://www.w3.org/2000/svg">
        <path d="M10 1.25C5.16797 1.25 1.25 5.16797 1.25 10C1.25 14.832 5.16797 18.75 10 18.75C14.832 18.75 18.75 14.832 18.75 10C18.75 5.16797 14.832 1.25 10 1.25ZM14.2051 7.8457C14.2109 7.9375 14.2109 8.0332 14.2109 8.12695C14.2109 10.9941 12.0273 14.2969 8.03711 14.2969C6.80664 14.2969 5.66602 13.9395 4.70508 13.3242C4.88086 13.3438 5.04883 13.3516 5.22852 13.3516C6.24414 13.3516 7.17773 13.0078 7.92188 12.4258C6.96875 12.4063 6.16797 11.7813 5.89453 10.9219C6.22852 10.9707 6.5293 10.9707 6.87305 10.8828C6.38228 10.7831 5.94116 10.5166 5.62464 10.1285C5.30812 9.7404 5.13572 9.2547 5.13672 8.75391V8.72656C5.42383 8.88867 5.76172 8.98828 6.11523 9.00195C5.81805 8.8039 5.57433 8.53557 5.40569 8.22076C5.23704 7.90596 5.14868 7.5544 5.14844 7.19727C5.14844 6.79297 5.25391 6.42383 5.44336 6.10352C5.98809 6.77409 6.66783 7.32254 7.43841 7.71321C8.20898 8.10389 9.05314 8.32803 9.91602 8.37109C9.60938 6.89648 10.7109 5.70312 12.0352 5.70312C12.6602 5.70312 13.2227 5.96484 13.6191 6.38672C14.1094 6.29492 14.5781 6.11133 14.9961 5.86523C14.834 6.36719 14.4941 6.79102 14.043 7.05859C14.4805 7.01172 14.9023 6.89063 15.293 6.7207C14.998 7.1543 14.6289 7.53906 14.2051 7.8457V7.8457Z" fill="currentColor"/>
    </g>

    <g id="instagram" viewBox="0 0 20 20" xmlns="http://www.w3.org/2000/svg">
        <path d="M12.9999 10.0001C12.9999 10.7958 12.6838 11.5589 12.1212 12.1215C11.5586 12.6841 10.7956 13.0001 9.9999 13.0001C9.20425 13.0001 8.44119 12.6841 7.87858 12.1215C7.31597 11.5589 6.9999 10.7958 6.9999 10.0001C6.9999 9.82915 7.0179 9.66215 7.0489 9.50015H5.9999V13.4971C5.9999 13.7751 6.2249 14.0001 6.5029 14.0001H13.4979C13.6311 13.9999 13.7588 13.9468 13.8529 13.8525C13.947 13.7582 13.9999 13.6304 13.9999 13.4971V9.50015H12.9509C12.9819 9.66215 12.9999 9.82915 12.9999 10.0001V10.0001ZM9.9999 12.0001C10.2626 12.0001 10.5227 11.9483 10.7654 11.8477C11.0081 11.7471 11.2286 11.5997 11.4143 11.4139C11.6 11.228 11.7473 11.0075 11.8478 10.7647C11.9483 10.522 12 10.2619 11.9999 9.99915C11.9998 9.73644 11.948 9.47631 11.8474 9.23363C11.7468 8.99094 11.5994 8.77044 11.4136 8.58473C11.2278 8.39901 11.0072 8.25171 10.7645 8.15123C10.5218 8.05076 10.2616 7.99908 9.9989 7.99915C9.46834 7.99928 8.95955 8.21017 8.58448 8.58543C8.20941 8.96069 7.99877 9.46958 7.9989 10.0001C7.99903 10.5307 8.20993 11.0395 8.58519 11.4146C8.96045 11.7896 9.46934 12.0003 9.9999 12.0001V12.0001ZM12.3999 7.90015H13.5989C13.6786 7.90015 13.755 7.86857 13.8114 7.81234C13.8678 7.75611 13.8996 7.6798 13.8999 7.60015V6.40115C13.8999 6.32132 13.8682 6.24476 13.8117 6.18831C13.7553 6.13186 13.6787 6.10015 13.5989 6.10015H12.3999C12.3201 6.10015 12.2435 6.13186 12.1871 6.18831C12.1306 6.24476 12.0989 6.32132 12.0989 6.40115V7.60015C12.0999 7.76515 12.2349 7.90015 12.3999 7.90015V7.90015ZM9.9999 0.400146C7.45382 0.400146 5.01203 1.41157 3.21168 3.21192C1.41133 5.01227 0.399902 7.45407 0.399902 10.0001C0.399902 12.5462 1.41133 14.988 3.21168 16.7884C5.01203 18.5887 7.45382 19.6001 9.9999 19.6001C11.2606 19.6001 12.5089 19.3518 13.6737 18.8694C14.8384 18.3869 15.8967 17.6798 16.7881 16.7884C17.6796 15.8969 18.3867 14.8386 18.8691 13.6739C19.3516 12.5092 19.5999 11.2608 19.5999 10.0001C19.5999 8.73946 19.3516 7.49111 18.8691 6.32638C18.3867 5.16166 17.6796 4.10336 16.7881 3.21192C15.8967 2.32048 14.8384 1.61335 13.6737 1.1309C12.5089 0.648458 11.2606 0.400146 9.9999 0.400146V0.400146ZM14.9999 13.8891C14.9999 14.5001 14.4999 15.0001 13.8889 15.0001H6.1109C5.4999 15.0001 4.9999 14.5001 4.9999 13.8891V6.11115C4.9999 5.50015 5.4999 5.00015 6.1109 5.00015H13.8889C14.4999 5.00015 14.9999 5.50015 14.9999 6.11115V13.8891V13.8891Z" fill="currentColor"/>
    </g>

    <g id="facebook" viewBox="0 0 20 20" xmlns="http://www.w3.org/2000/svg">
        <path fill-rule="evenodd" clip-rule="evenodd" d="M0 10.0558C0 15.0275 3.61083 19.1617 8.33333 20V12.7775H5.83333V10H8.33333V7.7775C8.33333 5.2775 9.94417 3.88917 12.2225 3.88917C12.9442 3.88917 13.7225 4 14.4442 4.11083V6.66667H13.1667C11.9442 6.66667 11.6667 7.2775 11.6667 8.05583V10H14.3333L13.8892 12.7775H11.6667V20C16.3892 19.1617 20 15.0283 20 10.0558C20 4.525 15.5 0 10 0C4.5 0 0 4.525 0 10.0558Z" fill="currentColor"/>
    </g>

    <g id="youtube" viewBox="0 0 20 20" xmlns="http://www.w3.org/2000/svg">
        <path d="M11.6029 9.83315L9.3569 8.78515C9.1609 8.69415 8.9999 8.79615 8.9999 9.01315V10.9871C8.9999 11.2041 9.1609 11.3061 9.3569 11.2151L11.6019 10.1671C11.7989 10.0751 11.7989 9.92515 11.6029 9.83315ZM9.9999 0.400146C4.6979 0.400146 0.399902 4.69815 0.399902 10.0001C0.399902 15.3021 4.6979 19.6001 9.9999 19.6001C15.3019 19.6001 19.5999 15.3021 19.5999 10.0001C19.5999 4.69815 15.3019 0.400146 9.9999 0.400146ZM9.9999 13.9001C5.0859 13.9001 4.9999 13.4571 4.9999 10.0001C4.9999 6.54315 5.0859 6.10015 9.9999 6.10015C14.9139 6.10015 14.9999 6.54315 14.9999 10.0001C14.9999 13.4571 14.9139 13.9001 9.9999 13.9001Z" fill="currentColor"/>
    </g>

    <g id="locator" viewBox="0 0 15 15" xmlns="http://www.w3.org/2000/svg">
        <path d="M7.5 0.625C8.99184 0.625 10.4226 1.21763 11.4775 2.27252C12.5324 3.32742 13.125 4.75816 13.125 6.25C13.125 8.57875 11.35 11.0187 7.875 13.625C7.76682 13.7061 7.63523 13.75 7.5 13.75C7.36477 13.75 7.23318 13.7061 7.125 13.625C3.65 11.0187 1.875 8.57875 1.875 6.25C1.875 4.75816 2.46763 3.32742 3.52252 2.27252C4.57742 1.21763 6.00816 0.625 7.5 0.625V0.625ZM7.5 4.375C7.00272 4.375 6.52581 4.57254 6.17417 4.92417C5.82254 5.27581 5.625 5.75272 5.625 6.25C5.625 6.74728 5.82254 7.22419 6.17417 7.57583C6.52581 7.92746 7.00272 8.125 7.5 8.125C7.99728 8.125 8.47419 7.92746 8.82583 7.57583C9.17746 7.22419 9.375 6.74728 9.375 6.25C9.375 5.75272 9.17746 5.27581 8.82583 4.92417C8.47419 4.57254 7.99728 4.375 7.5 4.375Z" fill="currentColor"/>
    </g>

</svg>